<?xml version="1.0" encoding="UTF-8"?>
<svg width="120px" height="23px" viewBox="0 0 120 23" version="1.1" xmlns="http://www.w3.org/2000/svg" xmlns:xlink="http://www.w3.org/1999/xlink">
    <!-- Generator: Sketch 44.1 (41455) - http://www.bohemiancoding.com/sketch -->
    <title>Muuto_logo</title>
    <desc>Created with Sketch.</desc>
    <defs>
        <polygon id="path-1" points="38.3160679 0.07695849 0.00890194954 0.07695849 0.00890194954 22.7723274 76.6232339 22.7723274 76.6232339 0.07695849 38.3160679 0.07695849"></polygon>
    </defs>
    <g id="Muuto_Desktop" stroke="none" stroke-width="1" fill="none" fill-rule="evenodd">
        <g id="Desktop-—-Landing_page_medium_headline" transform="translate(-156.000000, -6362.000000)">
            <g id="Footer" transform="translate(37.000000, 6322.000000)">
                <g id="Muuto_logo" transform="translate(119.000000, 40.000000)">
                    <path d="M108.576485,17.3719389 C106.869981,17.3719389 104.251176,16.2499107 104.251176,11.4256031 C104.251176,6.6021817 106.869981,5.47956266 108.576485,5.47956266 C110.282692,5.47956266 112.901794,6.6021817 112.901794,11.4256031 C112.901794,16.2499107 110.282692,17.3719389 108.576485,17.3719389 M108.576485,0.0803558897 C101.962782,0.0803558897 97.545931,4.8113089 97.545931,11.4256031 C97.545931,18.0413744 101.962782,22.7723274 108.576485,22.7723274 C115.190634,22.7723274 119.610452,18.0413744 119.610452,11.4256031 C119.610452,4.8113089 115.190634,0.0803558897 108.576485,0.0803558897" id="Fill-5" fill="#212121"></path>
                    <path d="M54.186612,0.494247807 L48.8690324,0.494247807 C48.4789786,0.494247807 48.1601405,0.811239975 48.1601405,1.19810041 L48.1601405,12.3479232 C48.1601405,14.5720384 48.1601405,17.3499297 44.9739844,17.3499297 C41.7020728,17.3499297 41.7020728,14.5720384 41.7020728,12.3479232 L41.7020728,1.19810041 C41.7020728,0.811239975 41.3832347,0.494247807 40.9911038,0.494247807 L35.6732275,0.494247807 C35.2831737,0.494247807 34.9674513,0.811239975 34.9674513,1.19810041 L34.9674513,13.8407112 C34.9674513,19.8778905 38.2715582,22.7723274 44.9449047,22.7723274 C51.6200315,22.7723274 54.8922398,19.8778905 54.8922398,13.8407112 L54.8922398,1.19810041 C54.8922398,0.811239975 54.576369,0.494247807 54.186612,0.494247807" id="Fill-6" fill="#212121"></path>
                    <g id="Group-10">
                        <mask id="mask-2" fill="white">
                            <use xlink:href="#path-1"></use>
                        </mask>
                        <g id="Clip-8"></g>
                        <path d="M75.914342,0.494247807 L70.5969108,0.494247807 C70.2044832,0.494247807 69.8878706,0.811239975 69.8878706,1.19810041 L69.8878706,12.3479232 C69.8878706,14.5720384 69.8878706,17.3499297 66.7054236,17.3499297 C63.427429,17.3499297 63.427429,14.5720384 63.427429,12.3479232 L63.427429,1.19810041 C63.427429,0.811239975 63.1117066,0.494247807 62.7194273,0.494247807 L57.4045183,0.494247807 C57.0119424,0.494247807 56.693846,0.811239975 56.693846,1.19810041 L56.693846,13.8407112 C56.693846,19.8778905 60.0034425,22.7723274 66.6732282,22.7723274 C73.3458329,22.7723274 76.6232339,19.8778905 76.6232339,13.8407112 L76.6232339,1.19810041 C76.6232339,0.811239975 76.306918,0.494247807 75.914342,0.494247807" id="Fill-7" fill="#212121" mask="url(#mask-2)"></path>
                        <path d="M23.1425466,0.07695849 C20.3549011,0.07695849 18.1613124,0.581693922 16.5516915,1.61199232 C14.9340589,0.581693922 12.7340905,0.07695849 9.94689005,0.07695849 C3.27428541,0.07695849 0,2.97213393 0,9.00665445 L0,21.6477881 C0,22.0386367 0.315574111,22.3557766 0.705331135,22.3557766 L6.02602638,22.3557766 C6.4153383,22.3557766 6.73106078,22.0386367 6.73106078,21.6477881 L6.73106078,10.5006241 C6.73106078,8.27414552 6.73106078,5.50334445 9.91706852,5.50334445 C13.1922441,5.50334445 13.1922441,8.27414552 13.1922441,10.5006241 L13.1922441,21.6477881 C13.1922441,22.0386367 13.5110823,22.3557766 13.9006909,22.3557766 L19.2187156,22.3557766 C19.6081759,22.3557766 19.9259755,22.0386367 19.9259755,21.6477881 L19.9259755,10.5006241 C19.9259755,8.27414552 19.9259755,5.50334445 23.1100545,5.50334445 C26.3874556,5.50334445 26.3874556,8.27414552 26.3874556,10.5006241 L26.3874556,21.6477881 C26.3874556,22.0386367 26.7030297,22.3557766 27.0927867,22.3557766 L32.4111081,22.3557766 C32.803239,22.3557766 33.1192582,22.0386367 33.1192582,21.6477881 L33.1192582,9.00665445 C33.1192582,2.97213393 29.8148545,0.07695849 23.1425466,0.07695849" id="Fill-9" fill="#212121" mask="url(#mask-2)"></path>
                    </g>
                    <path d="M96.4411991,0.494247807 L78.8783945,0.494247807 C78.4859669,0.494247807 78.1705411,0.811239975 78.1705411,1.19810041 L78.1705411,5.36493734 C78.1705411,5.75622917 78.4859669,6.06849452 78.8783945,6.06849452 L84.2912249,6.06849452 L84.2912249,21.6566508 C84.2912249,22.0445453 84.6072441,22.3606512 85.0001168,22.3606512 L90.3144323,22.3606512 C90.7074534,22.3606512 91.0265883,22.0445453 91.0265883,21.6566508 L91.0265883,6.06849452 L96.4411991,6.06849452 C96.831698,6.06849452 97.1462335,5.75622917 97.1462335,5.36493734 L97.1462335,1.19810041 C97.1462335,0.811239975 96.831698,0.494247807 96.4411991,0.494247807" id="Fill-11" fill="#212121"></path>
                </g>
            </g>
        </g>
    </g>
</svg>